<svg width="905" height="134" viewBox="0 0 905 134" fill="none" xmlns="http://www.w3.org/2000/svg">
<g clip-path="url(#clip0_643_551)">
<path d="M-0.48468 14.4303H15.3984L51.3438 84.5613H52.1094L87.359 14.4303H102.963V105.87H87.359V30.9115H86.8712L48.9755 105.87H45.771L7.45673 31.5319H6.4119V105.87H-0.48468V14.4303Z" fill="#0A1505"/>
<path d="M156.997 107.387C151.517 107.387 146.478 106.444 141.881 104.559C137.283 102.675 133.311 100.123 129.969 96.905C126.625 93.6409 124.002 89.8482 122.098 85.5267C120.24 81.1594 119.311 76.4933 119.311 71.528C119.311 66.3332 120.24 61.4603 122.098 56.9089C124.002 52.3116 126.625 48.3119 129.969 44.9101C133.311 41.508 137.283 38.8416 141.881 36.9109C146.478 34.9341 151.517 33.9457 156.997 33.9457C162.43 33.9457 167.424 34.842 171.975 36.635C176.573 38.428 180.542 40.8875 183.887 44.0135C187.231 47.1397 189.831 50.8175 191.688 55.0469C193.593 59.2306 194.545 63.7359 194.545 68.5628C194.545 73.8958 193.593 78.9298 191.688 83.6649C189.831 88.3541 187.231 92.4687 183.887 96.0084C180.542 99.5023 176.573 102.284 171.975 104.352C167.424 106.375 162.43 107.387 156.997 107.387ZM159.713 102.215C162.5 102.215 165.055 101.502 167.378 100.077C169.7 98.652 171.695 96.7442 173.368 94.3535C175.039 91.917 176.339 89.1126 177.268 85.9406C178.197 82.7683 178.661 79.4125 178.661 75.8725C178.661 70.7695 178.22 65.9883 177.338 61.529C176.456 57.0697 175.016 53.1852 173.021 49.8751C171.023 46.565 168.423 43.9677 165.216 42.0827C162.012 40.1519 158.112 39.1866 153.515 39.1866C151.146 39.1866 148.847 39.8761 146.619 41.2551C144.39 42.5884 142.415 44.4274 140.695 46.7718C139.024 49.1165 137.678 51.8749 136.655 55.0469C135.633 58.1732 135.125 61.506 135.125 65.0459C135.125 70.195 135.656 75.0219 136.725 79.5272C137.841 84.0326 139.442 87.9634 141.533 91.3192C143.669 94.6754 146.245 97.3417 149.265 99.3185C152.329 101.249 155.814 102.215 159.713 102.215Z" fill="#0A1505"/>
<path d="M255.058 105.87C253.2 104.95 251.62 103.663 250.32 102.008C249.067 100.307 248.439 98.3761 248.439 96.2155C246.768 97.4567 245.118 98.7437 243.494 100.077C241.914 101.41 240.173 102.629 238.268 103.732C236.411 104.789 234.322 105.663 232 106.352C229.725 107.042 227.075 107.387 224.058 107.387C221.271 107.387 218.739 106.927 216.464 106.007C214.235 105.134 212.331 103.916 210.753 102.353C209.22 100.79 208.013 98.9278 207.131 96.7669C206.293 94.6063 205.875 92.2846 205.875 89.8021C205.875 86.7679 206.48 84.0326 207.686 81.5961C208.895 79.1596 210.543 76.9987 212.634 75.114C214.769 73.1832 217.232 71.4823 220.018 70.0109C222.805 68.4938 225.775 67.1608 228.933 66.0113C232.093 64.8161 235.344 63.7587 238.686 62.8393C242.03 61.9199 245.281 61.0693 248.439 60.2878V55.8745C248.439 52.6565 248.208 49.9441 247.744 47.7372C247.279 45.5306 246.558 43.7606 245.582 42.4276C244.61 41.0483 243.354 40.0829 241.823 39.5312C240.336 38.9337 238.549 38.6348 236.457 38.6348C234.459 38.6348 232.625 39.0255 230.954 39.807C229.284 40.5886 227.797 41.646 226.497 42.9793C225.241 44.2663 224.198 45.8064 223.36 47.5994C222.571 49.3464 222.037 51.2084 221.759 53.1852H208.802C209.173 50.151 210.219 47.4386 211.936 45.0479C213.7 42.6574 215.909 40.6576 218.555 39.0485C221.201 37.3936 224.198 36.1293 227.54 35.2557C230.931 34.3824 234.439 33.9457 238.061 33.9457C242.705 33.9457 246.605 34.4054 249.762 35.3247C252.923 36.1984 255.452 37.4396 257.357 39.0485C259.261 40.6576 260.607 42.6344 261.396 44.9791C262.232 47.2775 262.652 49.8291 262.652 52.6334V96.2155C262.652 98.3761 263.277 100.307 264.53 102.008C265.833 103.663 267.41 104.95 269.268 105.87H255.058ZM248.439 64.7701C246.397 65.4138 244.282 66.1494 242.101 66.977C239.919 67.8043 237.78 68.7467 235.692 69.8041C233.601 70.8155 231.606 71.919 229.701 73.1142C227.797 74.3094 226.126 75.5967 224.686 76.976C223.246 78.355 222.107 79.8031 221.271 81.3202C220.436 82.8373 220.018 84.4235 220.018 86.0784C220.018 87.8253 220.343 89.4805 220.994 91.0434C221.642 92.5605 222.501 93.9168 223.57 95.112C224.639 96.2612 225.869 97.1809 227.262 97.8704C228.656 98.5139 230.096 98.8358 231.582 98.8358C233.16 98.8358 234.67 98.6289 236.11 98.2153C237.55 97.8013 238.943 97.2499 240.29 96.5601C241.636 95.8246 242.983 94.9973 244.329 94.0776C245.676 93.1582 247.046 92.1699 248.439 91.1124V64.7701Z" fill="#0A1505"/>
<path d="M282.76 37.9453L292.72 33.9457H296.83V105.87H282.76V37.9453ZM281.644 8.22396C281.644 7.12061 281.854 6.08622 282.272 5.12081C282.69 4.1554 283.271 3.30491 284.013 2.56934C284.758 1.83378 285.616 1.25912 286.592 0.845365C287.565 0.431614 288.61 0.224737 289.726 0.224737C290.839 0.224737 291.885 0.431614 292.86 0.845365C293.836 1.25912 294.695 1.83378 295.437 2.56934C296.181 3.30491 296.763 4.1554 297.18 5.12081C297.598 6.08622 297.805 7.12061 297.805 8.22396C297.805 9.3273 297.598 10.3617 297.18 11.3271C296.763 12.2925 296.181 13.143 295.437 13.8786C294.695 14.6141 293.836 15.1888 292.86 15.6026C291.885 16.0163 290.839 16.2232 289.726 16.2232C288.61 16.2232 287.565 16.0163 286.592 15.6026C285.616 15.1888 284.758 14.6141 284.013 13.8786C283.271 13.143 282.69 12.2925 282.272 11.3271C281.854 10.3617 281.644 9.3273 281.644 8.22396Z" fill="#0A1505"/>
<path d="M358.782 60.4946C358.782 66.8849 359.758 72.6315 361.709 77.7346C363.657 82.7913 366.33 87.0898 369.718 90.6297C373.156 94.1236 377.196 96.813 381.84 98.698C386.484 100.537 391.523 101.456 396.956 101.456C400.207 101.456 403.344 100.836 406.361 99.5943C409.382 98.3531 412.168 96.7439 414.721 94.7671C417.321 92.7443 419.643 90.4919 421.687 88.0092C423.732 85.4809 425.403 82.9294 426.703 80.3548L433.251 84.4925C431.347 87.5725 429.095 90.5377 426.495 93.3881C423.893 96.1925 420.875 98.698 417.437 100.905C414.046 103.065 410.193 104.789 405.873 106.076C401.6 107.364 396.819 108.007 391.523 108.007C383.861 108.007 376.895 106.743 370.624 104.215C364.402 101.686 359.06 98.261 354.603 93.9398C350.145 89.6183 346.684 84.5843 344.222 78.8377C341.809 73.0451 340.6 66.931 340.6 60.4946C340.6 56.2194 341.158 52.0587 342.273 48.0131C343.386 43.9217 344.99 40.1059 347.078 36.566C349.216 32.9803 351.793 29.7162 354.813 26.7739C357.877 23.7857 361.312 21.2342 365.121 19.1194C368.976 16.9587 373.18 15.3037 377.73 14.1544C382.281 12.9591 387.136 12.3615 392.288 12.3615C397.213 12.3615 401.74 13.0281 405.873 14.3613C410.053 15.6485 413.839 17.3725 417.23 19.5332C420.665 21.6939 423.709 24.1994 426.355 27.0497C429.048 29.854 431.347 32.7962 433.251 35.8765L426.495 40.2897C422.639 32.8883 418.32 27.4865 413.538 24.0845C408.754 20.6366 403.25 18.9126 397.026 18.9126C391.687 18.9126 386.695 19.878 382.05 21.8088C377.406 23.7397 373.34 26.498 369.859 30.0839C366.421 33.6698 363.704 38.0371 361.709 43.1862C359.758 48.2889 358.782 54.0585 358.782 60.4946Z" fill="#0A1505"/>
<path d="M461.023 33.9457H463.182L465.063 48.358C466.176 46.2431 467.569 44.3123 469.243 42.5654C470.914 40.8184 472.748 39.3013 474.746 38.014C476.79 36.7271 478.926 35.7384 481.154 35.0489C483.43 34.3133 485.728 33.9457 488.051 33.9457C490.142 33.9457 492.184 34.2216 494.182 34.773C496.226 35.3247 498.128 36.1984 499.895 37.3936L495.435 49.1856C494.506 48.1742 493.53 47.3696 492.511 46.7718C491.489 46.1283 490.443 45.6456 489.374 45.3237C488.308 44.9561 487.215 44.7263 486.099 44.6342C484.987 44.5422 483.871 44.4962 482.758 44.4962C480.991 44.4962 479.25 44.749 477.532 45.2547C475.862 45.7604 474.258 46.519 472.725 47.5304C471.194 48.4958 469.777 49.76 468.478 51.3232C467.175 52.8403 466.039 54.6333 465.063 56.7021V105.87H450.92V37.8072L461.023 33.9457Z" fill="#0A1505"/>
<path d="M536.722 107.387C531.891 107.387 527.34 106.49 523.067 104.697C518.84 102.904 515.148 100.468 511.99 97.3877C508.833 94.3074 506.324 90.6988 504.466 86.5611C502.655 82.3777 501.75 77.9414 501.75 73.252C501.75 67.5975 502.588 62.3796 504.259 57.5984C505.93 52.7712 508.298 48.6108 511.365 45.1169C514.429 41.623 518.098 38.8877 522.371 36.9109C526.689 34.9341 531.496 33.9457 536.792 33.9457C541.433 33.9457 545.707 34.773 549.609 36.4282C553.508 38.0371 556.853 40.221 559.639 42.9793C562.473 45.6917 564.655 48.8407 566.188 52.4266C567.768 56.0123 568.557 59.759 568.557 63.6669H515.405C515.405 68.402 516.007 72.7923 517.216 76.8379C518.469 80.8836 520.21 84.3775 522.442 87.3196C524.67 90.2618 527.317 92.5605 530.381 94.2157C533.448 95.8706 536.812 96.6982 540.484 96.6982C543.548 96.6982 546.498 96.2155 549.329 95.2501C552.162 94.2387 554.718 92.9284 556.993 91.3192C559.315 89.7104 561.29 87.8714 562.914 85.8025C564.541 83.734 565.677 81.5961 566.328 79.3895L570.438 81.1824C569.416 84.8141 567.768 88.2163 565.49 91.3883C563.215 94.5603 560.545 97.3417 557.481 99.7324C554.461 102.077 551.163 103.939 547.588 105.318C544.012 106.697 540.391 107.387 536.722 107.387ZM550.792 58.0121C550.792 55.3458 550.304 52.8633 549.329 50.5646C548.4 48.2659 547.1 46.2891 545.429 44.6342C543.755 42.9333 541.807 41.6 539.578 40.6346C537.347 39.6692 534.955 39.1866 532.402 39.1866C530.267 39.1866 528.222 39.6692 526.271 40.6346C524.32 41.554 522.579 42.8643 521.048 44.5652C519.515 46.2204 518.238 48.1972 517.216 50.4956C516.24 52.7942 515.659 55.2767 515.475 57.9433L550.792 58.0121Z" fill="#0A1505"/>
<path d="M630.951 105.87C629.093 104.95 627.513 103.663 626.213 102.008C624.96 100.307 624.332 98.3761 624.332 96.2155C622.661 97.4567 621.011 98.7437 619.387 100.077C617.807 101.41 616.066 102.629 614.161 103.732C612.304 104.789 610.215 105.663 607.893 106.352C605.615 107.042 602.968 107.387 599.951 107.387C597.164 107.387 594.632 106.927 592.357 106.007C590.128 105.134 588.224 103.916 586.643 102.353C585.113 100.79 583.904 98.9278 583.021 96.7669C582.186 94.6063 581.768 92.2846 581.768 89.8021C581.768 86.7679 582.373 84.0326 583.579 81.5961C584.789 79.1596 586.436 76.9987 588.524 75.114C590.663 73.1832 593.122 71.4823 595.908 70.0109C598.695 68.4938 601.668 67.1608 604.826 66.0113C607.984 64.8161 611.234 63.7587 614.579 62.8393C617.923 61.9199 621.174 61.0693 624.332 60.2878V55.8745C624.332 52.6565 624.101 49.9441 623.637 47.7372C623.172 45.5306 622.451 43.7606 621.475 42.4276C620.5 41.0483 619.247 40.0829 617.713 39.5312C616.229 38.9337 614.439 38.6348 612.35 38.6348C610.352 38.6348 608.518 39.0255 606.847 39.807C605.174 40.5886 603.69 41.646 602.387 42.9793C601.134 44.2663 600.088 45.8064 599.253 47.5994C598.464 49.3464 597.93 51.2084 597.652 53.1852H584.695C585.066 50.151 586.112 47.4386 587.829 45.0479C589.593 42.6574 591.799 40.6576 594.448 39.0485C597.094 37.3936 600.088 36.1293 603.433 35.2557C606.824 34.3824 610.329 33.9457 613.951 33.9457C618.595 33.9457 622.498 34.4054 625.655 35.3247C628.813 36.1984 631.345 37.4396 633.249 39.0485C635.154 40.6576 636.5 42.6344 637.289 44.9791C638.124 47.2775 638.542 49.8291 638.542 52.6334V96.2155C638.542 98.3761 639.17 100.307 640.423 102.008C641.723 103.663 643.303 104.95 645.161 105.87H630.951ZM624.332 64.7701C622.287 65.4138 620.175 66.1494 617.994 66.977C615.809 67.8043 613.673 68.7467 611.585 69.8041C609.494 70.8155 607.496 71.919 605.594 73.1142C603.69 74.3094 602.016 75.5967 600.576 76.976C599.136 78.355 598 79.8031 597.164 81.3202C596.329 82.8373 595.908 84.4235 595.908 86.0784C595.908 87.8253 596.236 89.4805 596.884 91.0434C597.535 92.5605 598.394 93.9168 599.463 95.112C600.529 96.2612 601.762 97.1809 603.155 97.8704C604.549 98.5139 605.989 98.8358 607.472 98.8358C609.053 98.8358 610.563 98.6289 612.003 98.2153C613.443 97.8013 614.836 97.2499 616.183 96.5601C617.529 95.8246 618.876 94.9973 620.222 94.0776C621.569 93.1582 622.939 92.1699 624.332 91.1124V64.7701Z" fill="#0A1505"/>
<path d="M672.515 11.2582H676.555V35.2557H692.439V41.2551H676.555V90.9746C676.555 92.0318 676.739 93.0202 677.113 93.9398C677.53 94.8592 678.065 95.6638 678.714 96.3533C679.412 97.0428 680.224 97.5945 681.153 98.0082C682.081 98.3761 683.104 98.5599 684.216 98.5599C685.797 98.5599 687.237 98.1693 688.537 97.3877C689.836 96.6061 690.976 95.6408 691.951 94.4916L695.503 96.836C693.552 100.1 691.022 102.675 687.909 104.559C684.798 106.444 680.942 107.387 676.345 107.387C673.976 107.387 671.911 106.973 670.146 106.145C668.382 105.364 666.919 104.26 665.756 102.835C664.643 101.364 663.805 99.6404 663.25 97.6636C662.692 95.6407 662.412 93.4111 662.412 90.9746V41.2551H650.013V38.6348L662.412 35.2557V15.1888L672.515 11.2582Z" fill="#0A1505"/>
<path d="M711.361 37.9453L721.324 33.9457H725.434V105.87H711.361V37.9453ZM710.248 8.22396C710.248 7.12061 710.455 6.08622 710.873 5.12081C711.291 4.1554 711.872 3.30491 712.617 2.56934C713.359 1.83378 714.217 1.25912 715.193 0.845365C716.168 0.431614 717.214 0.224737 718.327 0.224737C719.443 0.224737 720.489 0.431614 721.461 0.845365C722.437 1.25912 723.298 1.83378 724.04 2.56934C724.782 3.30491 725.364 4.1554 725.781 5.12081C726.199 6.08622 726.409 7.12061 726.409 8.22396C726.409 9.3273 726.199 10.3617 725.781 11.3271C725.364 12.2925 724.782 13.143 724.04 13.8786C723.298 14.6141 722.437 15.1888 721.461 15.6026C720.489 16.0163 719.443 16.2232 718.327 16.2232C717.214 16.2232 716.168 16.0163 715.193 15.6026C714.217 15.1888 713.359 14.6141 712.617 13.8786C711.872 13.143 711.291 12.2925 710.873 11.3271C710.455 10.3617 710.248 9.3273 710.248 8.22396Z" fill="#0A1505"/>
<path d="M750.627 35.2557L775.846 88.699L800.016 35.2557H806.428L774.312 106.628H769.437L735.788 35.2557H750.627Z" fill="#0A1505"/>
<path d="M844.996 107.387C840.164 107.387 835.614 106.49 831.34 104.697C827.117 102.904 823.425 100.468 820.264 97.3877C817.107 94.3074 814.601 90.6988 812.743 86.5611C810.932 82.3777 810.023 77.9414 810.023 73.252C810.023 67.5975 810.862 62.3796 812.532 57.5984C814.203 52.7712 816.572 48.6108 819.639 45.1169C822.703 41.623 826.372 38.8877 830.645 36.9109C834.965 34.9341 839.77 33.9457 845.066 33.9457C849.71 33.9457 853.98 34.773 857.883 36.4282C861.785 38.0371 865.127 40.221 867.913 42.9793C870.746 45.6917 872.928 48.8407 874.462 52.4266C876.042 56.0123 876.831 59.759 876.831 63.6669H823.679C823.679 68.402 824.283 72.7923 825.49 76.8379C826.743 80.8836 828.487 84.3775 830.715 87.3196C832.944 90.2618 835.59 92.5605 838.657 94.2157C841.721 95.8706 845.089 96.6982 848.758 96.6982C851.822 96.6982 854.772 96.2155 857.605 95.2501C860.435 94.2387 862.991 92.9284 865.267 91.3192C867.589 89.7104 869.563 87.8714 871.188 85.8025C872.814 83.734 873.951 81.5961 874.602 79.3895L878.712 81.1824C877.689 84.8141 876.042 88.2163 873.767 91.3883C871.491 94.5603 868.819 97.3417 865.755 99.7324C862.737 102.077 859.44 103.939 855.861 105.318C852.286 106.697 848.664 107.387 844.996 107.387ZM859.066 58.0121C859.066 55.3458 858.581 52.8633 857.605 50.5646C856.676 48.2659 855.374 46.2891 853.703 44.6342C852.032 42.9333 850.081 41.6 847.852 40.6346C845.624 39.6692 843.231 39.1866 840.676 39.1866C838.54 39.1866 836.496 39.6692 834.545 40.6346C832.596 41.554 830.852 42.8643 829.322 44.5652C827.788 46.2204 826.512 48.1972 825.49 50.4956C824.514 52.7942 823.933 55.2767 823.749 57.9433L859.066 58.0121Z" fill="#0A1505"/>
<path d="M878.712 2.5701V0H889.113V2.5701H885.301V12.1017H882.36V2.5701H878.712ZM896.997 12.1017L893.699 2.94914V12.1017H890.918V0H895.18L897.94 7.7149L900.683 0H905V12.1017H902.176V2.94914L898.84 12.1017H896.997Z" fill="#0A1505"/>
</g>
<defs>
<clipPath id="clip0_643_551">
<rect width="905" height="134" fill="white"/>
</clipPath>
</defs>
</svg>
