<svg width="221" height="174" viewBox="0 0 221 174" fill="none" xmlns="http://www.w3.org/2000/svg">
<path fill-rule="evenodd" clip-rule="evenodd" d="M87.4534 132.942C87.4534 120.529 98.0422 109.963 110.492 109.963C122.931 109.963 133.52 120.529 133.52 132.942C129.244 135.761 117.827 141.564 112.8 151.401C112.352 152.266 111.466 152.81 110.492 152.81C109.518 152.81 108.621 152.266 108.183 151.401C103.147 141.564 91.7396 135.761 87.4534 132.942Z" fill="#0A1505"/>
<path fill-rule="evenodd" clip-rule="evenodd" d="M165.776 40.3275C169.036 36.2643 174.929 35.4419 179.185 38.4739C186.087 43.3718 191.66 48.9938 195.535 55.1438C196.949 57.3778 197.405 60.0785 196.789 62.644C196.187 65.2096 194.563 67.4313 192.299 68.7815C177.377 77.7549 145.515 96.8554 145.515 96.8554C145.515 96.8554 178.988 83.1929 194.218 76.9818C195.904 76.2943 197.823 76.5888 199.225 77.7426C200.615 78.8965 201.267 80.7256 200.898 82.5055C199.36 89.7726 194.784 100.378 181.535 110.506C180.01 111.672 178.189 112.359 176.27 112.494C169.172 113.034 150.94 114.335 150.94 114.335C150.94 114.335 158.494 114.875 164.854 115.33C165.961 115.403 166.883 116.226 167.093 117.318C167.302 118.411 166.748 119.503 165.752 119.994C160.486 122.449 154.778 124.585 148.713 126.316C148.713 106.332 130.519 91.5892 110.504 91.5892C90.4764 91.5892 72.2941 106.332 72.2941 126.316C66.2172 124.585 60.509 122.449 55.2562 119.982C54.2595 119.503 53.706 118.411 53.915 117.318C54.1243 116.226 55.0346 115.416 56.1542 115.342C62.502 114.876 70.0675 114.335 70.0675 114.335C70.0675 114.335 51.8239 113.034 44.7256 112.519C42.8065 112.384 40.9736 111.684 39.4482 110.53C26.2113 100.378 21.6349 89.7726 20.0972 82.5055C19.7404 80.7256 20.3801 78.8965 21.7825 77.7426C23.1726 76.5888 25.1041 76.2943 26.7772 76.9818C42.0192 83.1929 75.4803 96.8554 75.4803 96.8554C75.4803 96.8554 43.6185 77.7549 28.684 68.8063C26.4205 67.4436 24.7843 65.2218 24.1815 62.6563C23.5664 60.0785 24.0216 57.3656 25.4486 55.1316C29.336 48.9938 34.9087 43.3718 41.8347 38.4985C46.0788 35.4665 51.9468 36.2765 55.2068 40.3519C66.2662 54.1126 90.2797 84.0523 90.2797 84.0523C90.2797 84.0523 74.2749 54.7264 65.5405 38.7439C64.138 36.1661 63.9535 33.085 65.0731 30.3599C66.1678 27.6348 68.456 25.548 71.2609 24.6764C78.6542 22.5528 86.5768 20.9693 94.8806 20.0855C97.4762 19.8277 100.072 20.6009 102.089 22.2581C104.107 23.903 105.386 26.2967 105.632 28.8868C107.281 45.8145 110.504 79.3754 110.504 79.3754C110.504 79.3754 113.714 45.8145 115.339 28.8868C115.585 26.2844 116.864 23.8908 118.881 22.2336C120.911 20.5642 123.519 19.7908 126.127 20.0486C134.419 20.9693 142.341 22.5527 149.722 24.7131C152.515 25.5847 154.778 27.6592 155.885 30.3721C156.993 33.0849 156.821 36.1538 155.406 38.7193C146.733 54.7264 130.716 84.0523 130.716 84.0523C130.716 84.0523 154.729 54.1126 165.776 40.3275Z" fill="#0A1505"/>
<path fill-rule="evenodd" clip-rule="evenodd" d="M136.001 131.525C141.663 128.585 145.54 127.258 145.54 127.258L137.588 125.437L141.783 114.811L130.346 113.081L128.591 101.808L117.81 105.944L110.569 97.048L103.328 105.944L92.548 101.808L90.7923 113.081L79.3563 114.811L83.5514 125.437L75.4926 127.272C75.4926 127.272 80.5127 129.044 85.1378 131.609C85.6525 118.21 96.8488 107.486 110.569 107.486C124.262 107.486 135.444 118.168 136.001 131.525Z" fill="#0A1505"/>
<path d="M135.261 109.962C136.608 109.962 137.699 108.873 137.699 107.529C137.699 106.185 136.608 105.096 135.261 105.096C133.915 105.096 132.823 106.185 132.823 107.529C132.823 108.873 133.915 109.962 135.261 109.962Z" fill="#0A1505"/>
<path d="M85.8688 109.962C87.2152 109.962 88.3071 108.873 88.3071 107.529C88.3071 106.185 87.2152 105.096 85.8688 105.096C84.5221 105.096 83.4306 106.185 83.4306 107.529C83.4306 108.873 84.5221 109.962 85.8688 109.962Z" fill="#0A1505"/>
<path d="M101.652 101.716C103.007 101.716 104.106 100.62 104.106 99.2674C104.106 97.9149 103.007 96.8187 101.652 96.8187C100.296 96.8187 99.1977 97.9149 99.1977 99.2674C99.1977 100.62 100.296 101.716 101.652 101.716Z" fill="#0A1505"/>
<path d="M119.478 101.716C120.833 101.716 121.932 100.62 121.932 99.2674C121.932 97.9149 120.833 96.8187 119.478 96.8187C118.122 96.8187 117.024 97.9149 117.024 99.2674C117.024 100.62 118.122 101.716 119.478 101.716Z" fill="#0A1505"/>
<path d="M144.156 124.596C145.504 124.596 146.596 123.506 146.596 122.161C146.596 120.816 145.504 119.725 144.156 119.725C142.808 119.725 141.715 120.816 141.715 122.161C141.715 123.506 142.808 124.596 144.156 124.596Z" fill="#0A1505"/>
<path d="M76.9753 124.596C78.3232 124.596 79.4159 123.506 79.4159 122.161C79.4159 120.816 78.3232 119.725 76.9753 119.725C75.6271 119.725 74.5347 120.816 74.5347 122.161C74.5347 123.506 75.6271 124.596 76.9753 124.596Z" fill="#0A1505"/>
</svg>
