<svg width="1185" height="174" viewBox="0 0 1185 174" fill="none" xmlns="http://www.w3.org/2000/svg">
<g clip-path="url(#clip0_643_548)">
<path d="M259.515 34.4303H275.398L311.344 104.561H312.109L347.359 34.4303H362.963V125.87H347.359V50.9115H346.871L308.975 125.87H305.771L267.457 51.5319H266.412V125.87H259.515V34.4303Z" fill="#0A1505"/>
<path d="M416.997 127.387C411.517 127.387 406.478 126.444 401.881 124.559C397.283 122.675 393.311 120.123 389.969 116.905C386.625 113.641 384.002 109.848 382.098 105.527C380.24 101.159 379.311 96.4933 379.311 91.528C379.311 86.3332 380.24 81.4603 382.098 76.9089C384.002 72.3116 386.625 68.3119 389.969 64.9101C393.311 61.508 397.283 58.8416 401.881 56.9109C406.478 54.9341 411.517 53.9457 416.997 53.9457C422.43 53.9457 427.424 54.842 431.975 56.635C436.573 58.428 440.542 60.8875 443.887 64.0135C447.231 67.1397 449.831 70.8175 451.688 75.0469C453.593 79.2306 454.545 83.7359 454.545 88.5628C454.545 93.8958 453.593 98.9298 451.688 103.665C449.831 108.354 447.231 112.469 443.887 116.008C440.542 119.502 436.573 122.284 431.975 124.352C427.424 126.375 422.43 127.387 416.997 127.387ZM419.713 122.215C422.5 122.215 425.055 121.502 427.378 120.077C429.7 118.652 431.695 116.744 433.368 114.353C435.039 111.917 436.339 109.113 437.268 105.941C438.197 102.768 438.661 99.4125 438.661 95.8725C438.661 90.7695 438.22 85.9883 437.338 81.529C436.456 77.0697 435.016 73.1852 433.021 69.8751C431.023 66.565 428.423 63.9677 425.216 62.0827C422.012 60.1519 418.112 59.1866 413.515 59.1866C411.146 59.1866 408.847 59.8761 406.619 61.2551C404.39 62.5884 402.415 64.4274 400.695 66.7718C399.024 69.1165 397.678 71.8749 396.655 75.0469C395.633 78.1732 395.125 81.506 395.125 85.0459C395.125 90.195 395.656 95.0219 396.725 99.5272C397.841 104.033 399.442 107.963 401.533 111.319C403.668 114.675 406.245 117.342 409.265 119.318C412.329 121.249 415.814 122.215 419.713 122.215Z" fill="#0A1505"/>
<path d="M515.058 125.87C513.2 124.95 511.62 123.663 510.32 122.008C509.067 120.307 508.439 118.376 508.439 116.215C506.768 117.457 505.118 118.744 503.494 120.077C501.914 121.41 500.173 122.629 498.268 123.732C496.411 124.789 494.322 125.663 492 126.352C489.725 127.042 487.075 127.387 484.058 127.387C481.271 127.387 478.739 126.927 476.464 126.007C474.235 125.134 472.331 123.916 470.753 122.353C469.22 120.79 468.013 118.928 467.131 116.767C466.293 114.606 465.875 112.285 465.875 109.802C465.875 106.768 466.48 104.033 467.686 101.596C468.895 99.1596 470.543 96.9987 472.634 95.114C474.769 93.1832 477.232 91.4823 480.018 90.0109C482.805 88.4938 485.775 87.1608 488.933 86.0113C492.093 84.8161 495.344 83.7587 498.686 82.8393C502.03 81.9199 505.281 81.0693 508.439 80.2878V75.8745C508.439 72.6565 508.208 69.9441 507.744 67.7372C507.279 65.5306 506.558 63.7606 505.582 62.4276C504.61 61.0483 503.354 60.0829 501.823 59.5312C500.336 58.9337 498.549 58.6348 496.457 58.6348C494.459 58.6348 492.625 59.0255 490.954 59.807C489.284 60.5886 487.797 61.646 486.497 62.9793C485.241 64.2663 484.198 65.8064 483.36 67.5994C482.571 69.3464 482.037 71.2084 481.759 73.1852H468.802C469.173 70.151 470.219 67.4386 471.936 65.0479C473.7 62.6574 475.909 60.6576 478.555 59.0485C481.201 57.3936 484.198 56.1293 487.54 55.2557C490.931 54.3824 494.439 53.9457 498.061 53.9457C502.705 53.9457 506.605 54.4054 509.762 55.3247C512.922 56.1984 515.452 57.4396 517.356 59.0485C519.261 60.6576 520.607 62.6344 521.396 64.9791C522.231 67.2775 522.652 69.8291 522.652 72.6334V116.215C522.652 118.376 523.277 120.307 524.53 122.008C525.833 123.663 527.41 124.95 529.268 125.87H515.058ZM508.439 84.7701C506.397 85.4138 504.282 86.1494 502.1 86.977C499.919 87.8043 497.78 88.7467 495.692 89.8041C493.601 90.8155 491.606 91.919 489.701 93.1142C487.797 94.3094 486.126 95.5967 484.686 96.976C483.246 98.355 482.107 99.8031 481.271 101.32C480.436 102.837 480.018 104.423 480.018 106.078C480.018 107.825 480.343 109.481 480.994 111.043C481.642 112.56 482.501 113.917 483.57 115.112C484.639 116.261 485.869 117.181 487.262 117.87C488.655 118.514 490.096 118.836 491.582 118.836C493.16 118.836 494.67 118.629 496.11 118.215C497.55 117.801 498.943 117.25 500.29 116.56C501.636 115.825 502.983 114.997 504.329 114.078C505.676 113.158 507.046 112.17 508.439 111.112V84.7701Z" fill="#0A1505"/>
<path d="M542.76 57.9453L552.72 53.9457H556.83V125.87H542.76V57.9453ZM541.644 28.224C541.644 27.1206 541.854 26.0862 542.272 25.1208C542.69 24.1554 543.271 23.3049 544.013 22.5693C544.758 21.8338 545.616 21.2591 546.592 20.8454C547.565 20.4316 548.61 20.2247 549.726 20.2247C550.839 20.2247 551.885 20.4316 552.86 20.8454C553.836 21.2591 554.695 21.8338 555.437 22.5693C556.181 23.3049 556.763 24.1554 557.18 25.1208C557.598 26.0862 557.805 27.1206 557.805 28.224C557.805 29.3273 557.598 30.3617 557.18 31.3271C556.763 32.2925 556.181 33.143 555.437 33.8786C554.695 34.6141 553.836 35.1888 552.86 35.6026C551.885 36.0163 550.839 36.2232 549.726 36.2232C548.61 36.2232 547.565 36.0163 546.592 35.6026C545.616 35.1888 544.758 34.6141 544.013 33.8786C543.271 33.143 542.69 32.2925 542.272 31.3271C541.854 30.3617 541.644 29.3273 541.644 28.224Z" fill="#0A1505"/>
<path d="M618.782 80.4946C618.782 86.8849 619.758 92.6315 621.709 97.7346C623.657 102.791 626.33 107.09 629.718 110.63C633.156 114.124 637.196 116.813 641.84 118.698C646.484 120.537 651.523 121.456 656.956 121.456C660.207 121.456 663.344 120.836 666.361 119.594C669.381 118.353 672.168 116.744 674.721 114.767C677.321 112.744 679.643 110.492 681.687 108.009C683.732 105.481 685.403 102.929 686.703 100.355L693.251 104.493C691.347 107.573 689.095 110.538 686.495 113.388C683.893 116.192 680.875 118.698 677.437 120.905C674.046 123.065 670.193 124.789 665.873 126.076C661.6 127.364 656.819 128.007 651.523 128.007C643.861 128.007 636.895 126.743 630.624 124.215C624.402 121.686 619.06 118.261 614.603 113.94C610.145 109.618 606.684 104.584 604.222 98.8377C601.809 93.0451 600.6 86.931 600.6 80.4946C600.6 76.2194 601.158 72.0587 602.273 68.0131C603.386 63.9217 604.99 60.1059 607.078 56.566C609.216 52.9803 611.793 49.7162 614.813 46.7739C617.877 43.7857 621.312 41.2342 625.121 39.1194C628.976 36.9587 633.18 35.3037 637.73 34.1544C642.281 32.9591 647.136 32.3615 652.288 32.3615C657.213 32.3615 661.74 33.0281 665.873 34.3613C670.053 35.6485 673.839 37.3725 677.23 39.5332C680.665 41.6939 683.709 44.1994 686.355 47.0497C689.048 49.854 691.347 52.7962 693.251 55.8765L686.495 60.2897C682.64 52.8883 678.32 47.4865 673.538 44.0845C668.753 40.6366 663.25 38.9126 657.026 38.9126C651.687 38.9126 646.695 39.878 642.05 41.8088C637.406 43.7397 633.34 46.498 629.859 50.0839C626.421 53.6698 623.704 58.0371 621.709 63.1862C619.758 68.2889 618.782 74.0585 618.782 80.4946Z" fill="#0A1505"/>
<path d="M721.023 53.9457H723.182L725.063 68.358C726.176 66.2431 727.569 64.3123 729.243 62.5654C730.914 60.8184 732.748 59.3013 734.746 58.014C736.79 56.7271 738.926 55.7384 741.154 55.0489C743.43 54.3133 745.728 53.9457 748.051 53.9457C750.142 53.9457 752.184 54.2216 754.182 54.773C756.226 55.3247 758.128 56.1984 759.895 57.3936L755.435 69.1856C754.506 68.1742 753.53 67.3696 752.511 66.7718C751.489 66.1283 750.443 65.6456 749.374 65.3237C748.308 64.9561 747.215 64.7263 746.099 64.6342C744.987 64.5422 743.871 64.4962 742.758 64.4962C740.991 64.4962 739.25 64.749 737.532 65.2547C735.862 65.7604 734.258 66.519 732.725 67.5304C731.194 68.4958 729.777 69.76 728.478 71.3232C727.175 72.8403 726.039 74.6333 725.063 76.7021V125.87H710.92V57.8072L721.023 53.9457Z" fill="#0A1505"/>
<path d="M796.722 127.387C791.891 127.387 787.34 126.49 783.067 124.697C778.84 122.904 775.148 120.468 771.99 117.388C768.833 114.307 766.324 110.699 764.466 106.561C762.655 102.378 761.75 97.9414 761.75 93.252C761.75 87.5975 762.588 82.3796 764.259 77.5984C765.93 72.7712 768.298 68.6108 771.365 65.1169C774.429 61.623 778.098 58.8877 782.371 56.9109C786.689 54.9341 791.496 53.9457 796.792 53.9457C801.433 53.9457 805.707 54.773 809.609 56.4282C813.508 58.0371 816.853 60.221 819.639 62.9793C822.473 65.6917 824.655 68.8407 826.188 72.4266C827.768 76.0123 828.557 79.759 828.557 83.6669H775.405C775.405 88.402 776.007 92.7923 777.216 96.8379C778.469 100.884 780.21 104.377 782.442 107.32C784.67 110.262 787.317 112.561 790.381 114.216C793.448 115.871 796.812 116.698 800.484 116.698C803.548 116.698 806.498 116.215 809.329 115.25C812.162 114.239 814.718 112.928 816.993 111.319C819.315 109.71 821.29 107.871 822.914 105.803C824.541 103.734 825.677 101.596 826.328 99.3895L830.438 101.182C829.416 104.814 827.768 108.216 825.49 111.388C823.215 114.56 820.545 117.342 817.481 119.732C814.461 122.077 811.163 123.939 807.588 125.318C804.012 126.697 800.391 127.387 796.722 127.387ZM810.792 78.0121C810.792 75.3458 810.304 72.8633 809.329 70.5646C808.4 68.2659 807.1 66.2891 805.429 64.6342C803.755 62.9333 801.807 61.6 799.578 60.6346C797.347 59.6692 794.955 59.1866 792.402 59.1866C790.267 59.1866 788.222 59.6692 786.271 60.6346C784.32 61.554 782.579 62.8643 781.048 64.5652C779.515 66.2204 778.238 68.1972 777.216 70.4956C776.24 72.7942 775.659 75.2767 775.475 77.9433L810.792 78.0121Z" fill="#0A1505"/>
<path d="M890.951 125.87C889.093 124.95 887.513 123.663 886.213 122.008C884.96 120.307 884.332 118.376 884.332 116.215C882.661 117.457 881.011 118.744 879.387 120.077C877.807 121.41 876.066 122.629 874.161 123.732C872.304 124.789 870.215 125.663 867.893 126.352C865.615 127.042 862.968 127.387 859.951 127.387C857.164 127.387 854.632 126.927 852.357 126.007C850.128 125.134 848.224 123.916 846.643 122.353C845.113 120.79 843.904 118.928 843.021 116.767C842.186 114.606 841.768 112.285 841.768 109.802C841.768 106.768 842.373 104.033 843.579 101.596C844.789 99.1596 846.436 96.9987 848.524 95.114C850.663 93.1832 853.122 91.4823 855.908 90.0109C858.695 88.4938 861.668 87.1608 864.826 86.0113C867.984 84.8161 871.234 83.7587 874.579 82.8393C877.923 81.9199 881.174 81.0693 884.332 80.2878V75.8745C884.332 72.6565 884.101 69.9441 883.637 67.7372C883.172 65.5306 882.451 63.7606 881.475 62.4276C880.5 61.0483 879.247 60.0829 877.713 59.5312C876.229 58.9337 874.439 58.6348 872.35 58.6348C870.352 58.6348 868.518 59.0255 866.847 59.807C865.174 60.5886 863.69 61.646 862.387 62.9793C861.134 64.2663 860.088 65.8064 859.253 67.5994C858.464 69.3464 857.93 71.2084 857.652 73.1852H844.695C845.066 70.151 846.112 67.4386 847.829 65.0479C849.593 62.6574 851.799 60.6576 854.448 59.0485C857.094 57.3936 860.088 56.1293 863.433 55.2557C866.824 54.3824 870.329 53.9457 873.951 53.9457C878.595 53.9457 882.498 54.4054 885.655 55.3247C888.813 56.1984 891.345 57.4396 893.249 59.0485C895.154 60.6576 896.5 62.6344 897.289 64.9791C898.124 67.2775 898.542 69.8291 898.542 72.6334V116.215C898.542 118.376 899.17 120.307 900.423 122.008C901.723 123.663 903.303 124.95 905.161 125.87H890.951ZM884.332 84.7701C882.287 85.4138 880.175 86.1494 877.994 86.977C875.809 87.8043 873.673 88.7467 871.585 89.8041C869.494 90.8155 867.496 91.919 865.594 93.1142C863.69 94.3094 862.016 95.5967 860.576 96.976C859.136 98.355 858 99.8031 857.164 101.32C856.329 102.837 855.908 104.423 855.908 106.078C855.908 107.825 856.236 109.481 856.884 111.043C857.535 112.56 858.394 113.917 859.463 115.112C860.529 116.261 861.762 117.181 863.155 117.87C864.549 118.514 865.989 118.836 867.472 118.836C869.053 118.836 870.563 118.629 872.003 118.215C873.443 117.801 874.836 117.25 876.183 116.56C877.529 115.825 878.876 114.997 880.222 114.078C881.569 113.158 882.939 112.17 884.332 111.112V84.7701Z" fill="#0A1505"/>
<path d="M932.515 31.2582H936.555V55.2557H952.439V61.2551H936.555V110.975C936.555 112.032 936.739 113.02 937.113 113.94C937.53 114.859 938.065 115.664 938.714 116.353C939.412 117.043 940.224 117.595 941.153 118.008C942.081 118.376 943.104 118.56 944.216 118.56C945.797 118.56 947.237 118.169 948.537 117.388C949.836 116.606 950.976 115.641 951.951 114.492L955.503 116.836C953.552 120.1 951.022 122.675 947.909 124.559C944.798 126.444 940.942 127.387 936.345 127.387C933.976 127.387 931.911 126.973 930.146 126.145C928.382 125.364 926.919 124.26 925.756 122.835C924.643 121.364 923.805 119.64 923.25 117.664C922.692 115.641 922.412 113.411 922.412 110.975V61.2551H910.013V58.6348L922.412 55.2557V35.1888L932.515 31.2582Z" fill="#0A1505"/>
<path d="M971.361 57.9453L981.324 53.9457H985.434V125.87H971.361V57.9453ZM970.248 28.224C970.248 27.1206 970.455 26.0862 970.873 25.1208C971.291 24.1554 971.872 23.3049 972.617 22.5693C973.359 21.8338 974.217 21.2591 975.193 20.8454C976.168 20.4316 977.214 20.2247 978.327 20.2247C979.443 20.2247 980.489 20.4316 981.461 20.8454C982.437 21.2591 983.298 21.8338 984.04 22.5693C984.782 23.3049 985.364 24.1554 985.781 25.1208C986.199 26.0862 986.409 27.1206 986.409 28.224C986.409 29.3273 986.199 30.3617 985.781 31.3271C985.364 32.2925 984.782 33.143 984.04 33.8786C983.298 34.6141 982.437 35.1888 981.461 35.6026C980.489 36.0163 979.443 36.2232 978.327 36.2232C977.214 36.2232 976.168 36.0163 975.193 35.6026C974.217 35.1888 973.359 34.6141 972.617 33.8786C971.872 33.143 971.291 32.2925 970.873 31.3271C970.455 30.3617 970.248 29.3273 970.248 28.224Z" fill="#0A1505"/>
<path d="M1010.63 55.2557L1035.85 108.699L1060.02 55.2557H1066.43L1034.31 126.628H1029.44L995.788 55.2557H1010.63Z" fill="#0A1505"/>
<path d="M1105 127.387C1100.16 127.387 1095.61 126.49 1091.34 124.697C1087.12 122.904 1083.42 120.468 1080.26 117.388C1077.11 114.307 1074.6 110.699 1072.74 106.561C1070.93 102.378 1070.02 97.9414 1070.02 93.252C1070.02 87.5975 1070.86 82.3796 1072.53 77.5984C1074.2 72.7712 1076.57 68.6108 1079.64 65.1169C1082.7 61.623 1086.37 58.8877 1090.65 56.9109C1094.97 54.9341 1099.77 53.9457 1105.07 53.9457C1109.71 53.9457 1113.98 54.773 1117.88 56.4282C1121.78 58.0371 1125.13 60.221 1127.91 62.9793C1130.75 65.6917 1132.93 68.8407 1134.46 72.4266C1136.04 76.0123 1136.83 79.759 1136.83 83.6669H1083.68C1083.68 88.402 1084.28 92.7923 1085.49 96.8379C1086.74 100.884 1088.49 104.377 1090.72 107.32C1092.94 110.262 1095.59 112.561 1098.66 114.216C1101.72 115.871 1105.09 116.698 1108.76 116.698C1111.82 116.698 1114.77 116.215 1117.61 115.25C1120.44 114.239 1122.99 112.928 1125.27 111.319C1127.59 109.71 1129.56 107.871 1131.19 105.803C1132.81 103.734 1133.95 101.596 1134.6 99.3895L1138.71 101.182C1137.69 104.814 1136.04 108.216 1133.77 111.388C1131.49 114.56 1128.82 117.342 1125.75 119.732C1122.74 122.077 1119.44 123.939 1115.86 125.318C1112.29 126.697 1108.66 127.387 1105 127.387ZM1119.07 78.0121C1119.07 75.3458 1118.58 72.8633 1117.61 70.5646C1116.68 68.2659 1115.37 66.2891 1113.7 64.6342C1112.03 62.9333 1110.08 61.6 1107.85 60.6346C1105.62 59.6692 1103.23 59.1866 1100.68 59.1866C1098.54 59.1866 1096.5 59.6692 1094.54 60.6346C1092.6 61.554 1090.85 62.8643 1089.32 64.5652C1087.79 66.2204 1086.51 68.1972 1085.49 70.4956C1084.51 72.7942 1083.93 75.2767 1083.75 77.9433L1119.07 78.0121Z" fill="#0A1505"/>
<path d="M1138.71 22.5701V20H1149.11V22.5701H1145.3V32.1017H1142.36V22.5701H1138.71ZM1157 32.1017L1153.7 22.9491V32.1017H1150.92V20H1155.18L1157.94 27.7149L1160.68 20H1165V32.1017H1162.18V22.9491L1158.84 32.1017H1157Z" fill="#0A1505"/>
<path fill-rule="evenodd" clip-rule="evenodd" d="M87.4896 133.167C87.4896 120.754 98.084 110.188 110.54 110.188C122.986 110.188 133.581 120.754 133.581 133.167C129.302 135.985 117.879 141.789 112.85 151.626C112.402 152.49 111.515 153.035 110.54 153.035C109.565 153.035 108.669 152.49 108.23 151.626C103.191 141.789 91.7781 135.985 87.4896 133.167Z" fill="#0A1505"/>
<path fill-rule="evenodd" clip-rule="evenodd" d="M165.854 40.5522C169.116 36.4891 175.012 35.6666 179.271 38.6986C186.176 43.5965 191.751 49.2184 195.629 55.3684C197.044 57.6027 197.5 60.3031 196.884 62.8686C196.281 65.4342 194.656 67.6562 192.391 69.0064C177.461 77.9798 145.582 97.08 145.582 97.08C145.582 97.08 179.073 83.4178 194.312 77.2063C195.998 76.5189 197.918 76.8137 199.321 77.9675C200.712 79.1214 201.364 80.9505 200.995 82.7304C199.457 89.9972 194.878 100.603 181.621 110.73C180.095 111.896 178.274 112.584 176.354 112.719C169.252 113.259 151.01 114.56 151.01 114.56C151.01 114.56 158.568 115.1 164.931 115.555C166.039 115.628 166.962 116.451 167.171 117.543C167.38 118.636 166.827 119.728 165.83 120.219C160.562 122.674 154.851 124.81 148.782 126.541C148.782 106.557 130.578 91.8141 110.552 91.8141C90.5142 91.8141 72.3221 106.557 72.3221 126.541C66.2419 124.81 60.5307 122.674 55.2751 120.207C54.2779 119.728 53.724 118.636 53.9332 117.543C54.1426 116.451 55.0534 115.64 56.1735 115.567C62.5248 115.1 70.0943 114.56 70.0943 114.56C70.0943 114.56 51.8409 113.259 44.7388 112.743C42.8187 112.608 40.9848 111.909 39.4586 110.755C26.2147 100.603 21.6358 89.9972 20.0972 82.7304C19.7403 80.9505 20.3803 79.1214 21.7835 77.9675C23.1743 76.8137 25.1068 76.5189 26.7808 77.2063C42.031 83.4178 75.51 97.08 75.51 97.08C75.51 97.08 43.6312 77.9798 28.6887 69.0309C26.4239 67.6685 24.7869 65.4467 24.1837 62.8809C23.5683 60.3031 24.0238 57.5902 25.4515 55.3562C29.341 49.2184 34.9167 43.5965 41.8464 38.7232C46.0928 35.6912 51.9639 36.5012 55.2257 40.5767C66.291 54.3372 90.3173 84.2769 90.3173 84.2769C90.3173 84.2769 74.304 54.9513 65.5649 38.9687C64.1617 36.3908 63.9771 33.3098 65.0972 30.5847C66.1926 27.8595 68.482 25.7727 71.2884 24.9012C78.6856 22.7775 86.6124 21.194 94.9207 20.3102C97.5177 20.0524 100.115 20.8256 102.133 22.4828C104.152 24.1277 105.432 26.5214 105.678 29.1115C107.328 46.0392 110.552 79.6 110.552 79.6C110.552 79.6 113.765 46.0392 115.39 29.1115C115.636 26.5091 116.916 24.1155 118.934 22.4584C120.965 20.7889 123.575 20.0156 126.184 20.2733C134.48 21.194 142.407 22.7774 149.792 24.9379C152.586 25.8094 154.851 27.8839 155.958 30.5968C157.066 33.3096 156.894 36.3785 155.478 38.9441C146.801 54.951 130.775 84.2769 130.775 84.2769C130.775 84.2769 154.801 54.3375 165.854 40.5522Z" fill="#0A1505"/>
<path fill-rule="evenodd" clip-rule="evenodd" d="M136.063 131.75C141.728 128.81 145.608 127.483 145.608 127.483L137.65 125.662L141.848 115.036L130.406 113.306L128.649 102.033L117.863 106.168L110.618 97.2729L103.373 106.168L92.5869 102.033L90.8305 113.306L79.3881 115.036L83.5855 125.662L75.5223 127.497C75.5223 127.497 80.5451 129.269 85.1727 131.833C85.6877 118.434 96.89 107.711 110.618 107.711C124.318 107.711 135.506 118.393 136.063 131.75Z" fill="#0A1505"/>
<path d="M135.323 110.187C136.671 110.187 137.763 109.097 137.763 107.754C137.763 106.41 136.671 105.321 135.323 105.321C133.976 105.321 132.884 106.41 132.884 107.754C132.884 109.097 133.976 110.187 135.323 110.187Z" fill="#0A1505"/>
<path d="M85.9041 110.187C87.2512 110.187 88.3437 109.097 88.3437 107.754C88.3437 106.41 87.2512 105.321 85.9041 105.321C84.5567 105.321 83.4645 106.41 83.4645 107.754C83.4645 109.097 84.5567 110.187 85.9041 110.187Z" fill="#0A1505"/>
<path d="M101.695 101.941C103.052 101.941 104.151 100.845 104.151 99.4923C104.151 98.1398 103.052 97.0433 101.695 97.0433C100.339 97.0433 99.2401 98.1398 99.2401 99.4923C99.2401 100.845 100.339 101.941 101.695 101.941Z" fill="#0A1505"/>
<path d="M119.531 101.941C120.887 101.941 121.986 100.845 121.986 99.4923C121.986 98.1398 120.887 97.0433 119.531 97.0433C118.175 97.0433 117.076 98.1398 117.076 99.4923C117.076 100.845 118.175 101.941 119.531 101.941Z" fill="#0A1505"/>
<path d="M144.222 124.821C145.571 124.821 146.664 123.731 146.664 122.386C146.664 121.041 145.571 119.95 144.222 119.95C142.874 119.95 141.78 121.041 141.78 122.386C141.78 123.731 142.874 124.821 144.222 124.821Z" fill="#0A1505"/>
<path d="M77.0058 124.821C78.3544 124.821 79.448 123.731 79.448 122.386C79.448 121.041 78.3544 119.95 77.0058 119.95C75.6569 119.95 74.5639 121.041 74.5639 122.386C74.5639 123.731 75.6569 124.821 77.0058 124.821Z" fill="#0A1505"/>
</g>
<defs>
<clipPath id="clip0_643_548">
<rect width="1145" height="134" fill="white" transform="translate(20 20)"/>
</clipPath>
</defs>
</svg>
